<svg width="26" height="27" viewBox="0 0 26 27" fill="none" xmlns="http://www.w3.org/2000/svg">
<path d="M21.15 27H2.25C1.65348 26.9993 1.0816 26.762 0.659799 26.3402C0.237997 25.9184 0.000714536 25.3465 0 24.75V22.95C0.000714536 22.3535 0.237997 21.7816 0.659799 21.3598C1.0816 20.938 1.65348 20.7007 2.25 20.7H21.15C21.7465 20.7007 22.3184 20.938 22.7402 21.3598C23.162 21.7816 23.3993 22.3535 23.4 22.95V24.75C23.3993 25.3465 23.162 25.9184 22.7402 26.3402C22.3184 26.762 21.7465 26.9993 21.15 27ZM2.25 21.6C1.89196 21.6 1.54858 21.7422 1.29541 21.9954C1.04223 22.2486 0.9 22.592 0.9 22.95V24.75C0.9 25.1081 1.04223 25.4514 1.29541 25.7046C1.54858 25.9578 1.89196 26.1 2.25 26.1H21.15C21.508 26.1 21.8514 25.9578 22.1046 25.7046C22.3578 25.4514 22.5 25.1081 22.5 24.75V22.95C22.5 22.592 22.3578 22.2486 22.1046 21.9954C21.8514 21.7422 21.508 21.6 21.15 21.6H2.25Z" fill="white"/>
<path d="M22.95 24.7516C22.8307 24.7516 22.7162 24.7041 22.6318 24.6197C22.5474 24.5354 22.5 24.4209 22.5 24.3016V13.0516C22.5 12.9322 22.5474 12.8178 22.6318 12.7334C22.7162 12.649 22.8307 12.6016 22.95 12.6016C23.0693 12.6016 23.1838 12.649 23.2682 12.7334C23.3526 12.8178 23.4 12.9322 23.4 13.0516V24.3016C23.4 24.4209 23.3526 24.5354 23.2682 24.6197C23.1838 24.7041 23.0693 24.7516 22.95 24.7516Z" fill="white"/>
<path d="M0.45 24.3C0.330653 24.3 0.216193 24.2526 0.131802 24.1682C0.0474106 24.0838 5.03973e-09 23.9694 5.03973e-09 23.85V3.15C-1.10787e-05 3.07593 0.0182601 3.00301 0.0531923 2.9377C0.0881245 2.87239 0.138638 2.81671 0.20025 2.7756L1.31122 1.94707C1.37342 1.39735 1.68843 0.942475 2.10079 0.573681C2.51315 0.204887 3.04678 0.000690245 3.6 0L17.55 0C17.6693 0 17.7838 0.0474106 17.8682 0.131802C17.9526 0.216193 18 0.330653 18 0.45C18 0.569348 17.9526 0.683807 17.8682 0.768198C17.7838 0.85259 17.6693 0.9 17.55 0.9H3.6C3.24196 0.9 2.89858 1.04223 2.64541 1.29541C2.39223 1.54858 2.19727 1.83922 2.19727 2.19727C2.19728 2.27133 2.17901 2.34426 2.14407 2.40957C2.10914 2.47488 2.05863 2.53056 1.99702 2.57167L0.9 3.39075V23.85C0.9 23.9694 0.85259 24.0838 0.768198 24.1682C0.683807 24.2526 0.569348 24.3 0.45 24.3Z" fill="white"/>
<path d="M12.1501 25.2H3.60012C3.24208 25.2 2.8987 25.0578 2.64553 24.8046C2.39235 24.5514 2.25012 24.208 2.25012 23.85C2.25012 23.492 2.39235 23.1486 2.64553 22.8954C2.8987 22.6422 3.24208 22.5 3.60012 22.5H12.1501C12.5082 22.5 12.8515 22.6422 13.1047 22.8954C13.3579 23.1486 13.5001 23.492 13.5001 23.85C13.5001 24.208 13.3579 24.5514 13.1047 24.8046C12.8515 25.0578 12.5082 25.2 12.1501 25.2ZM3.60012 23.4C3.48078 23.4 3.36632 23.4474 3.28192 23.5318C3.19753 23.6162 3.15012 23.7307 3.15012 23.85C3.15012 23.9693 3.19753 24.0838 3.28192 24.1682C3.36632 24.2526 3.48078 24.3 3.60012 24.3H12.1501C12.2695 24.3 12.3839 24.2526 12.4683 24.1682C12.5527 24.0838 12.6001 23.9693 12.6001 23.85C12.6001 23.7307 12.5527 23.6162 12.4683 23.5318C12.3839 23.4474 12.2695 23.4 12.1501 23.4H3.60012Z" fill="white"/>
<path d="M14.8499 24.2984C15.0984 24.2984 15.2999 24.097 15.2999 23.8484C15.2999 23.5999 15.0984 23.3984 14.8499 23.3984C14.6014 23.3984 14.3999 23.5999 14.3999 23.8484C14.3999 24.097 14.6014 24.2984 14.8499 24.2984Z" fill="white"/>
<path d="M16.6499 24.2984C16.8985 24.2984 17.0999 24.097 17.0999 23.8484C17.0999 23.5999 16.8985 23.3984 16.6499 23.3984C16.4014 23.3984 16.2 23.5999 16.2 23.8484C16.2 24.097 16.4014 24.2984 16.6499 24.2984Z" fill="white"/>
<path d="M20.7 24.2984H18.45C18.3307 24.2984 18.2162 24.251 18.1318 24.1666C18.0474 24.0822 18 23.9678 18 23.8484C18 23.7291 18.0474 23.6146 18.1318 23.5302C18.2162 23.4458 18.3307 23.3984 18.45 23.3984H20.7C20.8193 23.3984 20.9338 23.4458 21.0182 23.5302C21.1026 23.6146 21.15 23.7291 21.15 23.8484C21.15 23.9678 21.1026 24.0822 21.0182 24.1666C20.9338 24.251 20.8193 24.2984 20.7 24.2984Z" fill="white"/>
<path d="M23.4 13.5H15.3C14.8226 13.5 14.3648 13.3104 14.0272 12.9728C13.6896 12.6352 13.5 12.1774 13.5 11.7V4.05C13.5 3.93066 13.5475 3.81622 13.6318 3.73185L17.2318 0.13185C17.3162 0.0474528 17.4307 2.54868e-05 17.55 0L23.4 0C23.8774 0 24.3352 0.189642 24.6728 0.527208C25.0104 0.864773 25.2 1.32261 25.2 1.8V11.7C25.2 12.1774 25.0104 12.6352 24.6728 12.9728C24.3352 13.3104 23.8774 13.5 23.4 13.5ZM14.4 4.2363V11.7C14.4 11.9387 14.4948 12.1676 14.6636 12.3364C14.8324 12.5052 15.0613 12.6 15.3 12.6H23.4C23.6387 12.6 23.8676 12.5052 24.0364 12.3364C24.2052 12.1676 24.3 11.9387 24.3 11.7V1.8C24.3 1.56131 24.2052 1.33239 24.0364 1.1636C23.8676 0.994821 23.6387 0.9 23.4 0.9H17.7363L14.4 4.2363Z" fill="white"/>
<path d="M16.65 4.5H13.95C13.8307 4.5 13.7162 4.45259 13.6318 4.3682C13.5474 4.28381 13.5 4.16935 13.5 4.05C13.5 3.93065 13.5474 3.81619 13.6318 3.7318C13.7162 3.64741 13.8307 3.6 13.95 3.6H16.65C16.711 3.60574 16.7725 3.59786 16.8301 3.57693C16.8877 3.55599 16.9399 3.52252 16.9829 3.47895C17.026 3.43537 17.0588 3.38277 17.0791 3.32494C17.0993 3.26712 17.1065 3.20552 17.1 3.1446V0.45C17.1 0.330653 17.1474 0.216193 17.2318 0.131802C17.3162 0.0474106 17.4307 0 17.55 0C17.6693 0 17.7838 0.0474106 17.8682 0.131802C17.9526 0.216193 18 0.330653 18 0.45V3.15C18.0052 3.3287 17.9739 3.50659 17.9079 3.67274C17.8419 3.83889 17.7426 3.98981 17.6162 4.11623C17.4898 4.24264 17.3389 4.34189 17.1727 4.40789C17.0066 4.47388 16.8287 4.50523 16.65 4.5Z" fill="white"/>
<path d="M22.5 11.2516H16.2C16.0807 11.2516 15.9662 11.2042 15.8818 11.1198C15.7974 11.0354 15.75 10.9209 15.75 10.8016C15.75 10.6822 15.7974 10.5678 15.8818 10.4834C15.9662 10.399 16.0807 10.3516 16.2 10.3516H22.5C22.6193 10.3516 22.7338 10.399 22.8182 10.4834C22.9026 10.5678 22.95 10.6822 22.95 10.8016C22.95 10.9209 22.9026 11.0354 22.8182 11.1198C22.7338 11.2042 22.6193 11.2516 22.5 11.2516Z" fill="white"/>
<path d="M22.5 9.45005H16.2C16.0807 9.45005 15.9662 9.40264 15.8818 9.31825C15.7974 9.23386 15.75 9.1194 15.75 9.00005C15.75 8.8807 15.7974 8.76624 15.8818 8.68185C15.9662 8.59746 16.0807 8.55005 16.2 8.55005H22.5C22.6193 8.55005 22.7338 8.59746 22.8182 8.68185C22.9026 8.76624 22.95 8.8807 22.95 9.00005C22.95 9.1194 22.9026 9.23386 22.8182 9.31825C22.7338 9.40264 22.6193 9.45005 22.5 9.45005Z" fill="white"/>
<path d="M22.5 7.65H16.2C16.0807 7.65 15.9662 7.60259 15.8818 7.5182C15.7974 7.43381 15.75 7.31935 15.75 7.2C15.75 7.08065 15.7974 6.96619 15.8818 6.8818C15.9662 6.79741 16.0807 6.75 16.2 6.75H22.5C22.6193 6.75 22.7338 6.79741 22.8182 6.8818C22.9026 6.96619 22.95 7.08065 22.95 7.2C22.95 7.31935 22.9026 7.43381 22.8182 7.5182C22.7338 7.60259 22.6193 7.65 22.5 7.65Z" fill="white"/>
<path d="M22.5002 5.85001H19.3501C19.2308 5.85001 19.1163 5.8026 19.0319 5.71821C18.9476 5.63382 18.9001 5.51936 18.9001 5.40001C18.9001 5.28066 18.9476 5.16621 19.0319 5.08181C19.1163 4.99742 19.2308 4.95001 19.3501 4.95001H22.5002C22.6195 4.95001 22.734 4.99742 22.8183 5.08181C22.9027 5.16621 22.9502 5.28066 22.9502 5.40001C22.9502 5.51936 22.9027 5.63382 22.8183 5.71821C22.734 5.8026 22.6195 5.85001 22.5002 5.85001Z" fill="white"/>
<path d="M8.0999 17.1C7.98055 17.1 7.8661 17.0526 7.7817 16.9682C7.69731 16.8839 7.6499 16.7694 7.6499 16.65V13.05C7.6499 8.60135 11.6594 8.55005 11.6999 8.55005C11.8192 8.55005 11.9337 8.59746 12.0181 8.68185C12.1025 8.76624 12.1499 8.8807 12.1499 9.00005C12.1499 9.1194 12.1025 9.23386 12.0181 9.31825C11.9337 9.40264 11.8192 9.45005 11.6999 9.45005C11.5649 9.45005 8.5499 9.5162 8.5499 13.05V16.65C8.5499 16.7694 8.50249 16.8839 8.4181 16.9682C8.33371 17.0526 8.21925 17.1 8.0999 17.1Z" fill="white"/>
<path d="M8.10006 17.1C7.98072 17.1 7.86628 17.0525 7.78191 16.9681L5.98191 15.1681C5.89994 15.0833 5.85458 14.9696 5.85561 14.8516C5.85663 14.7336 5.90396 14.6208 5.98739 14.5373C6.07083 14.4539 6.18369 14.4066 6.30168 14.4055C6.41967 14.4045 6.53334 14.4499 6.61821 14.5318L8.10006 16.0137L9.58191 14.5318C9.66678 14.4499 9.78045 14.4045 9.89844 14.4055C10.0164 14.4066 10.1293 14.4539 10.2127 14.5373C10.2962 14.6208 10.3435 14.7336 10.3445 14.8516C10.3455 14.9696 10.3002 15.0833 10.2182 15.1681L8.41821 16.9681C8.33384 17.0525 8.2194 17.1 8.10006 17.1Z" fill="white"/>
</svg>
