<svg width="30" height="30" viewBox="0 0 30 30" fill="none" xmlns="http://www.w3.org/2000/svg">
<path d="M29.4112 27.6562H18.9238C18.6002 27.6562 18.3379 27.9186 18.3379 28.2421C18.3379 28.5657 18.6002 28.828 18.9238 28.828H29.4112C29.7348 28.828 29.9971 28.5657 29.9971 28.2421C29.9971 27.9186 29.7348 27.6562 29.4112 27.6562Z" fill="white"/>
<path d="M11.0147 27.6562H0.585879C0.262266 27.6562 0 27.9186 0 28.2421C0 28.5657 0.262324 28.828 0.585879 28.828H11.0147C11.3384 28.828 11.6006 28.5657 11.6006 28.2421C11.6006 27.9186 11.3383 27.6562 11.0147 27.6562Z" fill="white"/>
<path d="M15.2299 11.9844H10.6894C10.3658 11.9844 10.1035 12.2467 10.1035 12.5703C10.1035 12.8939 10.3658 13.1561 10.6894 13.1561H15.2299C15.5536 13.1561 15.8158 12.8938 15.8158 12.5703C15.8158 12.2467 15.5535 11.9844 15.2299 11.9844Z" fill="white"/>
<path d="M19.7891 12.1561C19.6802 12.0471 19.529 11.9844 19.3749 11.9844C19.2203 11.9844 19.0691 12.0471 18.9607 12.1561C18.8512 12.265 18.7891 12.4162 18.7891 12.5703C18.7891 12.7244 18.8512 12.8755 18.9607 12.9845C19.0697 13.0934 19.2203 13.1561 19.3749 13.1561C19.529 13.1561 19.6802 13.0934 19.7891 12.9845C19.8981 12.8755 19.9608 12.7243 19.9608 12.5703C19.9608 12.4162 19.8981 12.265 19.7891 12.1561Z" fill="white"/>
<path d="M17.7429 12.1561C17.6333 12.0471 17.4827 11.9844 17.3281 11.9844C17.174 11.9844 17.0228 12.0471 16.9139 12.1561C16.8049 12.265 16.7422 12.4162 16.7422 12.5703C16.7422 12.7249 16.8049 12.8755 16.9139 12.9845C17.0234 13.0934 17.174 13.1561 17.3281 13.1561C17.4821 13.1561 17.6333 13.0934 17.7429 12.9845C17.8518 12.8755 17.9139 12.7243 17.9139 12.5703C17.9139 12.4162 17.8518 12.265 17.7429 12.1561Z" fill="white"/>
<path d="M15.2299 16.6719H10.6894C10.3658 16.6719 10.1035 16.9342 10.1035 17.2578C10.1035 17.5813 10.3658 17.8436 10.6894 17.8436H15.2299C15.5536 17.8436 15.8158 17.5813 15.8158 17.2578C15.8158 16.9342 15.5535 16.6719 15.2299 16.6719Z" fill="white"/>
<path d="M19.7891 16.8436C19.6802 16.7346 19.529 16.6719 19.3749 16.6719C19.2203 16.6719 19.0697 16.7346 18.9607 16.8436C18.8512 16.9525 18.7891 17.1037 18.7891 17.2578C18.7891 17.4124 18.8512 17.563 18.9607 17.672C19.0697 17.7809 19.2203 17.8436 19.3749 17.8436C19.529 17.8436 19.6802 17.7809 19.7891 17.672C19.8981 17.563 19.9608 17.4118 19.9608 17.2578C19.9608 17.1037 19.8981 16.9525 19.7891 16.8436Z" fill="white"/>
<path d="M17.7429 16.8436C17.6333 16.7346 17.4827 16.6719 17.3281 16.6719C17.174 16.6719 17.0228 16.7346 16.9139 16.8436C16.8049 16.9525 16.7422 17.1037 16.7422 17.2578C16.7422 17.4118 16.8049 17.563 16.9139 17.672C17.0229 17.7809 17.174 17.8436 17.3281 17.8436C17.4828 17.8436 17.6333 17.7809 17.7429 17.672C17.8518 17.563 17.9139 17.4118 17.9139 17.2578C17.9139 17.1037 17.8518 16.9525 17.7429 16.8436Z" fill="white"/>
<path d="M15.2299 21.3594H10.6894C10.3658 21.3594 10.1035 21.6217 10.1035 21.9453C10.1035 22.2688 10.3658 22.5311 10.6894 22.5311H15.2299C15.5536 22.5311 15.8158 22.2688 15.8158 21.9453C15.8158 21.6217 15.5535 21.3594 15.2299 21.3594Z" fill="white"/>
<path d="M19.7891 21.5311C19.6796 21.4221 19.529 21.3594 19.3749 21.3594C19.2203 21.3594 19.0697 21.4221 18.9602 21.5311C18.8512 21.64 18.7891 21.7912 18.7891 21.9453C18.7891 22.0993 18.8512 22.2505 18.9602 22.3595C19.0697 22.4684 19.2203 22.5311 19.3749 22.5311C19.529 22.5311 19.6802 22.4684 19.7891 22.3595C19.8981 22.2505 19.9608 22.0993 19.9608 21.9453C19.9608 21.7912 19.8981 21.64 19.7891 21.5311Z" fill="white"/>
<path d="M17.7423 21.5311C17.6333 21.4221 17.4827 21.3594 17.3281 21.3594C17.174 21.3594 17.0228 21.4221 16.9139 21.5311C16.8049 21.64 16.7422 21.7912 16.7422 21.9453C16.7422 22.0993 16.8049 22.2505 16.9139 22.3595C17.0229 22.4684 17.174 22.5311 17.3281 22.5311C17.4828 22.5311 17.6333 22.4684 17.7423 22.3595C17.8518 22.2505 17.9139 22.0993 17.9139 21.9453C17.9139 21.7912 17.8518 21.64 17.7423 21.5311Z" fill="white"/>
<path d="M22.6219 17.3393C22.6219 16.382 22.1603 15.5306 21.4481 14.9957C22.1603 14.4608 22.6219 13.6094 22.6219 12.6521C22.6219 11.0368 21.3077 9.72266 19.6924 9.72266H10.3181C8.70281 9.72266 7.38867 11.0368 7.38867 12.6521C7.38867 13.6094 7.85021 14.4608 8.56248 14.9957C7.85027 15.5306 7.38867 16.382 7.38867 17.3393C7.38867 18.2966 7.85021 19.1479 8.56248 19.6828C7.85027 20.2177 7.38867 21.0691 7.38867 22.0264C7.38867 23.6417 8.70281 24.9559 10.3181 24.9559H14.412V26.5822C13.73 26.8241 13.2402 27.4753 13.2402 28.2392C13.2401 29.2084 14.0286 29.9969 14.9978 29.9969C15.967 29.9969 16.7555 29.2084 16.7555 28.2392C16.7555 27.4754 16.2657 26.8241 15.5838 26.5822V24.9559H19.6925C21.3078 24.9559 22.6219 23.6417 22.6219 22.0264C22.6219 21.0691 22.1604 20.2177 21.4481 19.6828C22.1603 19.1479 22.6219 18.2966 22.6219 17.3393ZM8.56037 12.6522C8.56037 11.683 9.34887 10.8945 10.3181 10.8945H19.6924C20.6616 10.8945 21.4501 11.683 21.4501 12.6522C21.4501 13.6214 20.6616 14.4099 19.6924 14.4099H10.3181C9.34887 14.4098 8.56037 13.6213 8.56037 12.6522ZM14.9978 28.8251C14.6747 28.8251 14.412 28.5622 14.412 28.2392C14.412 27.9161 14.6748 27.6533 14.9978 27.6533C15.3209 27.6533 15.5837 27.9162 15.5837 28.2392C15.5837 28.5622 15.3209 28.8251 14.9978 28.8251ZM21.4501 22.0264C21.4501 22.9956 20.6616 23.7841 19.6924 23.7841H10.3181C9.34887 23.7841 8.56037 22.9956 8.56037 22.0264C8.56037 21.0572 9.34887 20.2687 10.3181 20.2687H19.6924C20.6616 20.2688 21.4501 21.0573 21.4501 22.0264ZM19.6924 19.097H10.3181C9.34887 19.097 8.56037 18.3085 8.56037 17.3393C8.56037 16.3701 9.34887 15.5816 10.3181 15.5816H19.6924C20.6616 15.5816 21.4501 16.3701 21.4501 17.3393C21.4501 18.3085 20.6616 19.097 19.6924 19.097Z" fill="white"/>
<path d="M28.7399 9.07236C27.9875 7.98035 26.9601 7.12693 25.7569 6.59133C24.2823 2.63795 20.4985 0 16.2586 0C13.7915 0 11.4141 0.896895 9.56438 2.52539C7.87313 4.01432 6.72996 6.01512 6.3068 8.20752C6.21586 8.20342 6.1251 8.20137 6.03469 8.20137C2.70715 8.20137 0 10.9085 0 14.2361C0 15.6841 0.520664 17.0844 1.46607 18.179C2.40152 19.262 3.69152 19.9792 5.09854 20.1985C5.12912 20.2032 5.15947 20.2056 5.18947 20.2056C5.47324 20.2056 5.72256 19.999 5.76768 19.7099C5.81754 19.3901 5.59869 19.0906 5.279 19.0407C2.8991 18.6698 1.17176 16.6492 1.17176 14.2361C1.17176 11.5547 3.3532 9.37318 6.03469 9.37318C6.26045 9.37318 6.48938 9.38918 6.7152 9.42082C6.86965 9.44238 7.02609 9.4016 7.1502 9.3075C7.27441 9.2134 7.35598 9.07371 7.37689 8.91938C7.97596 4.50252 11.7943 1.17182 16.2585 1.17182C20.0867 1.17182 23.4943 3.60287 24.7379 7.22115C24.7932 7.38217 24.9158 7.51107 25.0738 7.57447C27.3531 8.48906 28.8259 10.6669 28.8259 13.1228C28.8259 15.9496 26.8194 18.4118 24.0548 18.9775C23.7377 19.0424 23.5334 19.352 23.5983 19.669C23.6631 19.986 23.9726 20.1903 24.2897 20.1255C27.5972 19.4487 29.9977 16.5037 29.9977 13.1228C29.9977 11.6674 29.5628 10.2667 28.7399 9.07236Z" fill="white"/>
</svg>
