<svg width="26" height="26" viewBox="0 0 26 26" fill="none" xmlns="http://www.w3.org/2000/svg">
<path d="M23.9145 7.03851L22.2424 5.3657V2.05085C22.2424 0.930695 21.3311 0.0193787 20.211 0.0193787H16.8997H14.3256C14.1745 0.0193787 14.1061 0.0194294 13.9714 0.0193787L12.0525 0.0194295C11.9178 0.0194295 11.7437 0.0194295 11.6224 0.0194295H9.10808H5.78754C4.66739 0.0194295 3.75607 0.930746 3.75607 2.0509V5.37103L2.08509 7.03815C1.59068 7.53231 1.31836 8.18944 1.31836 8.88852V20.6637C1.31836 21.3683 1.59891 22.0083 2.05355 22.4791C2.06335 22.4909 2.07356 22.5024 2.08458 22.5135C2.09555 22.5244 2.10703 22.5346 2.11871 22.5443C2.58955 22.999 3.22962 23.2797 3.93438 23.2797H10.7139C10.9944 23.2797 11.2218 23.0523 11.2218 22.7718C11.2218 22.4914 10.9944 22.264 10.7139 22.264H3.93433C3.67801 22.264 3.43581 22.2031 3.22078 22.0955L9.20696 16.1093L11.1558 18.057C11.6499 18.5508 12.3066 18.8227 13.005 18.8227H13.0059C13.7046 18.8225 14.3615 18.5501 14.8554 18.0559L16.7962 16.1139L22.7777 22.0955C22.5627 22.203 22.3205 22.264 22.0642 22.264H15.2847C15.0042 22.264 14.7768 22.4914 14.7768 22.7718C14.7768 23.0523 15.0042 23.2797 15.2847 23.2797H22.0643C22.7689 23.2797 23.409 22.9991 23.8798 22.5444C23.8916 22.5346 23.9031 22.5244 23.9141 22.5135C23.9251 22.5024 23.9353 22.4909 23.9452 22.4791C24.3997 22.0082 24.6803 21.3683 24.6803 20.6637V8.88776C24.6802 8.18934 24.4083 7.53261 23.9145 7.03851ZM22.2425 6.80245L23.1961 7.75653C23.2842 7.84465 23.3603 7.94145 23.4245 8.04465L22.2425 9.22747V6.80245ZM2.8028 7.75694L3.75612 6.8058V9.22579L2.57437 8.0448C2.63861 7.94165 2.71479 7.8449 2.8028 7.75694ZM2.50255 21.3772C2.39499 21.1622 2.33409 20.92 2.33409 20.6637V9.24062L8.48853 15.3912L2.50255 21.3772ZM14.137 17.3379C13.8348 17.6402 13.4331 17.8068 13.0056 17.8069C12.5783 17.8069 12.1762 17.6406 11.8739 17.3385L4.77186 10.2409V2.05085C4.77186 1.49077 5.22751 1.03511 5.78759 1.03511H20.211C20.7711 1.03511 21.2267 1.49077 21.2267 2.05085V5.51115C21.2219 5.55152 21.2219 5.59226 21.2267 5.63263V10.2438L14.137 17.3379ZM23.6645 20.6637C23.6645 20.92 23.6036 21.1622 23.4961 21.3772L17.5143 15.3955L23.6645 9.24148V20.6637Z" fill="white"/>
<path d="M12.9993 22.3505C12.8658 22.3505 12.7347 22.4048 12.6403 22.4993C12.5458 22.5937 12.4915 22.7248 12.4915 22.8583C12.4915 22.9919 12.5458 23.1229 12.6403 23.2174C12.7347 23.3124 12.8658 23.3662 12.9993 23.3662C13.1329 23.3662 13.2639 23.3124 13.3584 23.2174C13.4528 23.1229 13.5072 22.9919 13.5072 22.8583C13.5072 22.7248 13.4528 22.5937 13.3584 22.4993C13.2639 22.4049 13.1329 22.3505 12.9993 22.3505Z" fill="white"/>
<path d="M12.9992 3.24985C10.3552 3.24985 8.2041 5.40087 8.2041 8.04492C8.2041 10.7251 10.3846 12.9057 13.0648 12.9057H16.1516C16.4321 12.9057 16.6595 12.6782 16.6595 12.3978C16.6595 12.1174 16.4321 11.8899 16.1516 11.8899H13.0648C10.9447 11.8899 9.21983 10.1651 9.21983 8.04492C9.21983 5.96099 10.9152 4.26558 12.9992 4.26558C15.0832 4.26558 16.7786 5.96099 16.7786 8.04492V9.0857C16.7786 9.48569 16.4532 9.81108 16.0532 9.81108C15.6532 9.81108 15.3277 9.48569 15.3277 9.0857V7.91014C15.3277 6.51965 14.1965 5.38842 12.806 5.38842C11.3439 5.38842 10.1544 6.57795 10.1544 8.0401C10.1544 9.5022 11.3439 10.6917 12.806 10.6917H13.6139C13.8944 10.6917 14.1218 10.4643 14.1218 10.1839C14.1218 9.90341 13.8944 9.67599 13.6139 9.67599H12.806C11.904 9.67599 11.1701 8.94212 11.1701 8.04005C11.1701 7.13803 11.904 6.40416 12.806 6.40416C13.6364 6.40416 14.312 7.07977 14.312 7.91014V9.0857C14.312 10.0458 15.0931 10.8268 16.0532 10.8268C17.0133 10.8268 17.7944 10.0458 17.7944 9.0857V8.04492C17.7943 5.40087 15.6432 3.24985 12.9992 3.24985Z" fill="white"/>
</svg>
