<svg width="27" height="27" viewBox="0 0 27 27" fill="none" xmlns="http://www.w3.org/2000/svg">
<path d="M3.69141 0.343994H23.3086C25.344 0.343994 27 1.99996 27 4.0354V16.6917C27 18.7271 25.344 20.3831 23.3086 20.3831H17.9561C17.6649 20.3831 17.4287 20.1469 17.4287 19.8557C17.4287 19.5645 17.6649 19.3284 17.9561 19.3284H23.3086C24.7625 19.3284 25.9453 18.1455 25.9453 16.6917V4.0354C25.9453 2.58151 24.7625 1.39868 23.3086 1.39868H3.69141C2.23752 1.39868 1.05469 2.58151 1.05469 4.0354V16.6917C1.05469 18.1455 2.23752 19.3284 3.69141 19.3284H7.54808C7.83928 19.3284 8.07543 19.5645 8.07543 19.8557V22.6959L11.2885 19.4828C11.3874 19.384 11.5215 19.3284 11.6614 19.3284H12.9199C13.2111 19.3284 13.4473 19.5645 13.4473 19.8557C13.4473 20.1469 13.2111 20.3831 12.9199 20.3831H11.8798L7.92097 24.3419C7.82009 24.4428 7.68524 24.4964 7.54798 24.4963C7.48005 24.4963 7.4115 24.4832 7.34627 24.4562C7.14925 24.3746 7.02074 24.1823 7.02074 23.969V20.3831H3.69141C1.65597 20.3831 0 18.7271 0 16.6917V4.0354C0 1.99996 1.65597 0.343994 3.69141 0.343994Z" fill="white"/>
<path d="M15.2796 19.4829C15.3776 19.3847 15.5137 19.3284 15.6523 19.3284C15.7911 19.3284 15.927 19.3848 16.0252 19.4829C16.1233 19.581 16.1797 19.717 16.1797 19.8557C16.1797 19.9944 16.1233 20.1305 16.0252 20.2285C15.9271 20.3266 15.7911 20.3831 15.6523 20.3831C15.5137 20.3831 15.3776 20.3266 15.2796 20.2285C15.1814 20.1305 15.125 19.9944 15.125 19.8557C15.125 19.717 15.1815 19.581 15.2796 19.4829Z" fill="white"/>
<path d="M23.8625 4.63636C23.7023 4.54144 23.5038 4.53811 23.3404 4.62755L18.2149 7.43555V7.21523C18.2149 5.86897 17.1196 4.77368 15.7733 4.77368H5.25795C3.9117 4.77368 2.81641 5.86897 2.81641 7.21523V13.5118C2.81641 14.8581 3.9117 15.9534 5.25795 15.9534H15.7733C17.1195 15.9534 18.2148 14.8581 18.2148 13.5118V13.2915L23.3404 16.0995C23.4194 16.1427 23.5066 16.1643 23.5937 16.1643C23.6868 16.1643 23.7797 16.1397 23.8625 16.0907C24.0228 15.9957 24.1211 15.8233 24.1211 15.637V5.09008C24.1211 4.90383 24.0228 4.73133 23.8625 4.63636ZM17.1602 8.32581V12.4013V13.5118C17.1602 14.2765 16.538 14.8987 15.7733 14.8987H5.25795C4.49325 14.8987 3.87109 14.2765 3.87109 13.5118V13.4221H7.84969C8.14089 13.4221 8.37703 13.186 8.37703 12.8948C8.37703 12.6036 8.14089 12.3674 7.84969 12.3674H3.87109V7.21523C3.87109 6.45052 4.49325 5.82836 5.25795 5.82836H15.7733C16.538 5.82836 17.1602 6.45052 17.1602 7.21523V8.32581ZM23.0664 14.7467L18.2148 12.0889V8.63816L23.0664 5.98029V14.7467Z" fill="white"/>
<path d="M9.68422 12.3674H9.679C9.3878 12.3674 9.1543 12.6036 9.1543 12.8948C9.1543 13.186 9.39303 13.4221 9.68422 13.4221C9.97542 13.4221 10.2116 13.186 10.2116 12.8948C10.2116 12.6036 9.97542 12.3674 9.68422 12.3674Z" fill="white"/>
</svg>
