<svg width="26" height="26" viewBox="0 0 26 26" fill="none" xmlns="http://www.w3.org/2000/svg">
<g clip-path="url(#clip0)">
<path d="M15.5721 21.2106L12.3735 18.1442C11.6172 17.419 10.4644 17.3409 9.63297 17.9589C9.63267 17.9591 9.62879 17.9618 9.62864 17.9621L9.61448 17.9727C9.59749 17.9855 9.58154 17.9856 9.57081 17.9838C9.55203 17.9803 9.54427 17.9683 9.54159 17.9637C8.80268 16.7906 8.30302 15.5012 8.05602 14.1311C7.80932 12.7608 7.82781 11.3773 8.11162 10.0194C8.11252 10.0147 8.1152 10.0025 8.12981 9.99372C8.14173 9.98671 8.15485 9.98522 8.16931 9.98954L8.19137 9.99595C9.18876 10.2878 10.2455 9.81111 10.7032 8.86292L12.7967 4.52814C13.0917 3.91728 12.9653 3.18791 12.4826 2.71165C12.3115 2.53844 12.1167 2.37551 11.9034 2.22704C9.99281 0.900077 7.38524 1.30046 5.96689 3.13872C5.8788 3.25379 5.79696 3.37424 5.71811 3.49587L5.71721 3.49722C5.43339 3.91743 5.29253 4.17978 5.07982 4.57614L5.0345 4.66036C4.98337 4.75472 3.77715 6.98784 3.47991 8.56002C3.01916 10.9987 3.06 13.5206 3.59857 15.8527C4.16755 18.3161 5.2493 20.5079 6.81343 22.3671C7.21038 22.8388 7.94571 22.2213 7.54831 21.7487C6.08272 20.0071 5.06864 17.9504 4.53439 15.6365C4.02564 13.4328 3.98718 11.0476 4.42364 8.7383C4.6927 7.31429 5.86642 5.14035 5.87924 5.11694L5.92575 5.03034C6.11134 4.68481 6.30646 4.3521 6.52052 4.02356L6.5238 4.01834C6.58819 3.91653 6.65691 3.81785 6.7298 3.722C7.83571 2.29204 9.86655 1.98183 11.3552 3.01574C11.521 3.13082 11.671 3.25633 11.8012 3.3884C11.803 3.39034 11.805 3.39228 11.8069 3.39421C11.998 3.58159 12.0482 3.86958 11.9318 4.11046L9.83853 8.44524C9.58542 8.96905 9.006 9.23364 8.46162 9.07459L8.44344 9.06907C8.17304 8.98843 7.87953 9.02465 7.6382 9.16865C7.39865 9.31145 7.22857 9.5498 7.17163 9.82289C6.86232 11.3022 6.84205 12.8089 7.11096 14.3015C7.37972 15.7933 7.92395 17.1975 8.7289 18.4754C8.87796 18.7125 9.12138 18.8773 9.3967 18.9282C9.67456 18.9793 9.96404 18.911 10.1926 18.7394L10.2057 18.7297C10.6597 18.3924 11.2919 18.4376 11.7088 18.8374L14.9074 21.9038C15.2977 22.2781 15.3051 22.9093 15.0493 23.3582C14.6005 24.14 13.6704 24.6641 12.8041 24.8111C11.9221 24.9605 11.0313 24.7619 10.2962 24.2512C9.78978 23.8996 9.24123 24.6877 9.74834 25.0399C10.4865 25.5525 11.3468 25.8203 12.2283 25.8203C12.4728 25.8203 12.7192 25.7995 12.9645 25.758C14.1146 25.5628 15.2905 24.8667 15.8822 23.8364L15.8932 23.8171C16.3627 22.9991 16.2675 21.8774 15.5721 21.2106Z" fill="#00ABCA"/>
<path d="M20.7988 6.09303C18.047 5.35568 15.2086 6.99454 14.4712 9.74652C14.4068 9.98697 14.3593 10.2338 14.3299 10.4823L12.7825 12.9482C12.6196 13.2075 12.7538 13.5668 13.0407 13.66L15.5693 14.4815C16.2445 15.2571 17.1251 15.8064 18.1244 16.0742C20.8762 16.8115 23.7149 15.1726 24.4522 12.4209C25.1896 9.66895 23.5507 6.83039 20.7988 6.09303ZM18.373 15.1465C17.5217 14.9184 16.7764 14.4395 16.2178 13.7616C16.1597 13.6911 16.0826 13.6385 15.9958 13.6105L13.9232 12.9369L15.2023 10.8989C15.3525 10.6595 15.3262 10.2664 15.3989 9.9951C15.9992 7.7547 18.31 6.4206 20.5502 7.02087C22.7905 7.62115 24.1247 9.93191 23.5244 12.1723C22.9242 14.4124 20.6132 15.7468 18.373 15.1465Z" fill="#00ABCA"/>
<path d="M17.6736 10.7885C17.4125 10.7909 17.1954 11.012 17.1978 11.273C17.2002 11.5342 17.4215 11.7514 17.6825 11.749C17.9359 11.7466 18.1486 11.5379 18.1575 11.2851C18.1668 11.0161 17.9433 10.786 17.6736 10.7885Z" fill="#00ABCA"/>
<path d="M8.45685 23.0117C8.19569 23.0117 7.97656 23.2309 7.97656 23.4918C7.97656 23.7528 8.19584 23.9721 8.45685 23.9721C8.71025 23.9721 8.92491 23.7656 8.93609 23.5128C8.94786 23.2443 8.72605 23.0117 8.45685 23.0117Z" fill="#00ABCA"/>
<path d="M19.5641 10.7728C19.3025 10.7753 19.086 10.9958 19.0884 11.2574C19.0909 11.5188 19.3119 11.7358 19.573 11.7334C19.8267 11.7307 20.0388 11.5226 20.0475 11.2695C20.0568 11.0005 19.8342 10.7703 19.5641 10.7728Z" fill="#00ABCA"/>
<path d="M21.4508 10.7533C21.1898 10.7557 20.9727 10.9769 20.9752 11.2379C20.9777 11.499 21.199 11.7162 21.4597 11.7138C21.7134 11.7115 21.9258 11.5027 21.9347 11.25C21.9443 10.981 21.7208 10.7508 21.4508 10.7533Z" fill="#00ABCA"/>
</g>
<defs>
<clipPath id="clip0">
<rect width="26" height="25.7369" fill="#00ABCA"/>
</clipPath>
</defs>
</svg>
