<svg width="30" height="30" viewBox="0 0 30 30" fill="none" xmlns="http://www.w3.org/2000/svg">
<g clip-path="url(#clip0)">
<path d="M15 6.73102C14.6766 6.73102 14.4141 6.99355 14.4141 7.31696C14.4141 7.64037 14.6766 7.90289 15 7.90289C15.3234 7.90289 15.5859 7.64037 15.5859 7.31696C15.5859 6.99355 15.3234 6.73102 15 6.73102Z" fill="#00ABCA"/>
<path d="M5.27344 17.2779C5.59685 17.2779 5.85938 17.0154 5.85938 16.692C5.85938 16.3685 5.59685 16.106 5.27344 16.106C4.95003 16.106 4.6875 16.3685 4.6875 16.692C4.6875 17.0154 4.95003 17.2779 5.27344 17.2779Z" fill="#00ABCA"/>
<path d="M19.6875 0.871643C14.4125 0.871643 10.0829 4.50858 9.74808 9.08965C4.72435 9.34164 0 12.9642 0 17.8638C0 19.9114 0.810242 21.8954 2.28516 23.4673C2.57698 24.6703 2.22267 25.9454 1.34354 26.8246C1.17599 26.9921 1.12587 27.2441 1.21651 27.4631C1.30714 27.6819 1.52069 27.8248 1.75781 27.8248C3.42888 27.8248 5.03929 27.1695 6.23589 26.0148C7.40158 26.4121 8.9225 26.6529 10.3125 26.6529C15.5869 26.6529 19.9159 23.0169 20.2517 18.4367C21.4785 18.3822 22.7545 18.1557 23.7641 17.8116C24.9607 18.9664 26.5711 19.6216 28.2422 19.6216C28.4793 19.6216 28.6929 19.4788 28.7835 19.26C28.8741 19.041 28.824 18.789 28.6565 18.6214C27.7773 17.7423 27.423 16.4672 27.7148 15.2642C29.1898 13.6922 30 11.7083 30 9.66071C30 4.56969 24.9117 0.871643 19.6875 0.871643ZM10.3125 25.481C8.9296 25.481 7.35374 25.2096 6.29814 24.7896C6.07201 24.6994 5.8136 24.7587 5.64903 24.9383C4.94156 25.7117 4.02168 26.251 3.01941 26.4989C3.5717 25.4407 3.71269 24.1933 3.37669 23.0114C3.35014 22.9182 3.30093 22.8331 3.23341 22.7637C1.90407 21.3946 1.17188 19.6544 1.17188 17.8638C1.17188 13.7348 5.35767 10.2466 10.3125 10.2466C14.9913 10.2466 19.1016 13.5002 19.1016 17.8638C19.1016 22.064 15.1588 25.481 10.3125 25.481ZM26.7666 14.5606C26.6991 14.6302 26.6499 14.7153 26.6233 14.8083C26.2873 15.9902 26.4283 17.2376 26.9806 18.2957C25.9783 18.0481 25.0584 17.5086 24.351 16.7352C24.1864 16.5558 23.928 16.4963 23.7019 16.5864C22.787 16.9504 21.4819 17.2024 20.2499 17.2632C20.0787 15.0474 18.9734 12.9648 17.0837 11.4185H24.7266C25.0502 11.4185 25.3125 11.1562 25.3125 10.8326C25.3125 10.5089 25.0502 10.2466 24.7266 10.2466H15.2836C13.9536 9.56961 12.4601 9.17479 10.9229 9.09193C11.2596 5.15654 15.062 2.04352 19.6875 2.04352C24.6423 2.04352 28.8281 5.53168 28.8281 9.66071C28.8281 11.4512 28.0959 13.1914 26.7666 14.5606Z" fill="#00ABCA"/>
<path d="M15 16.106H7.61719C7.29355 16.106 7.03125 16.3683 7.03125 16.692C7.03125 17.0156 7.29355 17.2779 7.61719 17.2779H15C15.3236 17.2779 15.5859 17.0156 15.5859 16.692C15.5859 16.3683 15.3236 16.106 15 16.106Z" fill="#00ABCA"/>
<path d="M15 19.6216H5.27344C4.9498 19.6216 4.6875 19.8839 4.6875 20.2076C4.6875 20.5312 4.9498 20.7935 5.27344 20.7935H15C15.3236 20.7935 15.5859 20.5312 15.5859 20.2076C15.5859 19.8839 15.3236 19.6216 15 19.6216Z" fill="#00ABCA"/>
<path d="M24.7266 6.73102H17.3438C17.0201 6.73102 16.7578 6.99332 16.7578 7.31696C16.7578 7.64059 17.0201 7.90289 17.3438 7.90289H24.7266C25.0502 7.90289 25.3125 7.64059 25.3125 7.31696C25.3125 6.99332 25.0502 6.73102 24.7266 6.73102Z" fill="#00ABCA"/>
</g>
<defs>
<clipPath id="clip0">
<rect width="30" height="29.6965" fill="white" transform="translate(0 0.000549316)"/>
</clipPath>
</defs>
</svg>
