<svg width="16" height="16" viewBox="0 0 16 16" fill="none" xmlns="http://www.w3.org/2000/svg">
<path d="M2.33485 5.33557C1.7827 5.33557 1.33508 5.78319 1.33508 6.33534V11.0009C1.33508 11.5531 1.7827 12.0007 2.33485 12.0007C2.887 12.0007 3.33461 11.5531 3.33461 11.0009V6.33534C3.33461 5.78319 2.887 5.33557 2.33485 5.33557Z" fill="#00ABCA"/>
<path d="M13.6638 5.33557C13.1117 5.33557 12.6641 5.78319 12.6641 6.33534V11.0009C12.6641 11.5531 13.1117 12.0007 13.6638 12.0007C14.216 12.0007 14.6636 11.5531 14.6636 11.0009V6.33534C14.6636 5.78319 14.216 5.33557 13.6638 5.33557Z" fill="#00ABCA"/>
<path d="M11.6644 5.33557H4.33278C4.14873 5.33557 3.99951 5.48479 3.99951 5.66884V11.0009C3.99936 11.7928 4.5566 12.4755 5.33254 12.6339V15C5.33254 15.5521 5.78016 15.9997 6.33231 15.9997C6.88446 15.9997 7.33207 15.5521 7.33207 15V12.6672H8.66511V15C8.66511 15.5521 9.11272 15.9997 9.66487 15.9997C10.217 15.9997 10.6646 15.5521 10.6646 15V12.6339C11.4406 12.4755 11.9978 11.7928 11.9977 11.0009V5.66884C11.9976 5.48479 11.8484 5.33557 11.6644 5.33557Z" fill="#00ABCA"/>
<path d="M10.4214 1.38477L11.2339 0.572959C11.3662 0.445083 11.3699 0.234132 11.242 0.101726C11.1142 -0.0306493 10.9032 -0.0343047 10.7708 0.0935403C10.768 0.0962272 10.7653 0.0989453 10.7626 0.101726L9.8162 1.04819C8.65703 0.544653 7.34087 0.544653 6.1817 1.04819L5.23527 0.10107C5.10289 -0.0268065 4.89191 -0.0231198 4.76404 0.109255C4.63932 0.238413 4.63932 0.443146 4.76404 0.572272L5.57585 1.38474C4.58617 2.03958 3.99344 3.14936 3.99956 4.33605C3.99956 4.5201 4.14877 4.66931 4.33282 4.66931H11.6644C11.8485 4.66931 11.9977 4.5201 11.9977 4.33605C12.0038 3.14939 11.4111 2.03962 10.4214 1.38477Z" fill="#00ABCA"/>
<path d="M6.33327 3.3345C6.51732 3.3345 6.66653 3.18529 6.66653 3.00123C6.66653 2.81718 6.51732 2.66797 6.33327 2.66797C6.14921 2.66797 6 2.81718 6 3.00123C6 3.18529 6.14921 3.3345 6.33327 3.3345Z" fill="#00ABCA"/>
<path d="M9.66554 3.33535C9.8496 3.33535 9.99881 3.18615 9.99881 3.00209C9.99881 2.81803 9.8496 2.66882 9.66554 2.66882C9.48148 2.66882 9.33228 2.81803 9.33228 3.00209C9.33228 3.18615 9.48148 3.33535 9.66554 3.33535Z" fill="#00ABCA"/>
</svg>
