<svg width="15" height="15" viewBox="0 0 15 15" fill="none" xmlns="http://www.w3.org/2000/svg">
<path d="M13.5291 10.4212C13.4795 10.3446 13.3989 10.2934 13.3084 10.2812C12.1184 10.1258 11.2796 9.03502 11.4351 7.84496C11.5449 7.00432 12.1335 6.30431 12.9428 6.05186C13.1072 5.99919 13.1977 5.82326 13.1451 5.65891C13.1369 5.63333 13.1254 5.6089 13.111 5.58622C12.5649 4.60063 11.5938 3.92279 10.4804 3.75C9.91928 3.77678 9.36634 3.89522 8.84351 4.10062C8.46802 4.25173 8.07152 4.34428 7.6679 4.37498C7.26428 4.34428 6.86778 4.25173 6.49228 4.10062C5.96946 3.89522 5.41651 3.77678 4.85543 3.75C3.68857 3.75 1.41797 5.40435 1.41797 8.43745C1.41797 11.3199 3.52044 14.9999 5.16793 14.9999C5.79655 15.0055 6.41761 14.8625 6.98042 14.5824C7.19239 14.4655 7.42667 14.3948 7.66793 14.3749C7.90916 14.3948 8.14347 14.4655 8.35543 14.5824C8.91825 14.8625 9.53931 15.0055 10.1679 14.9999C11.4742 14.9999 12.9485 12.7574 13.566 10.6793C13.5918 10.592 13.5784 10.4978 13.5291 10.4212Z" fill="#00ABCA"/>
<path d="M7.35545 3.74996C9.25305 3.74788 10.7909 2.21011 10.7929 0.312507C10.7929 0.139921 10.653 0 10.4804 0C8.58283 0.00208006 7.04502 1.53986 7.04297 3.43746C7.04294 3.61004 7.18286 3.74996 7.35545 3.74996Z" fill="#00ABCA"/>
</svg>
