<svg width="21" height="11" viewBox="0 0 21 11" fill="none" xmlns="http://www.w3.org/2000/svg">
<path d="M20.1798 4.6798H2.80733L5.68515 1.81593C6.00626 1.49634 6.00749 0.976957 5.6879 0.655846C5.3683 0.334693 4.84888 0.333504 4.52777 0.653057L0.241474 4.91868C0.241186 4.91893 0.240981 4.91921 0.240735 4.91946C-0.0795557 5.23905 -0.0805811 5.76011 0.240653 6.08077C0.24094 6.08102 0.241145 6.08131 0.241392 6.08155L4.52769 10.3472C4.84876 10.6667 5.36818 10.6656 5.68782 10.3444C6.00741 10.0233 6.00618 9.50389 5.68507 9.1843L2.80733 6.32043H20.1798C20.6329 6.32043 21.0001 5.95317 21.0001 5.50012C21.0001 5.04706 20.6329 4.6798 20.1798 4.6798Z" fill="#667886"/>
</svg>
