<svg width="21" height="11" viewBox="0 0 21 11" fill="none" xmlns="http://www.w3.org/2000/svg">
<path d="M0.820233 6.32019L18.1927 6.3202L15.3149 9.18407C14.9938 9.50366 14.9926 10.023 15.3122 10.3442C15.6318 10.6653 16.1512 10.6665 16.4723 10.3469L20.7586 6.08132C20.7589 6.08107 20.7591 6.08079 20.7593 6.08054C21.0796 5.76095 21.0806 5.23989 20.7594 4.91923C20.7591 4.91898 20.7589 4.91869 20.7587 4.91845L16.4724 0.652825C16.1513 0.333314 15.6319 0.334421 15.3122 0.655613C14.9927 0.976724 14.9939 1.4961 15.315 1.8157L18.1927 4.67957L0.820233 4.67957C0.367175 4.67957 -7.96244e-05 5.04682 -7.9664e-05 5.49988C-7.97036e-05 5.95294 0.367175 6.32019 0.820233 6.32019Z" fill="#FFFFFF"/>
</svg>
