<svg width="15" height="15" viewBox="0 0 15 15" fill="none" xmlns="http://www.w3.org/2000/svg">
<g clip-path="url(#clip0)">
<path d="M13.9107 10.4899C13.873 10.4268 13.6399 9.92031 12.5183 8.87926C11.344 7.78914 11.5017 7.96615 12.9161 6.08123C13.7775 4.93327 14.1219 4.23223 14.0141 3.93254C13.9116 3.64686 13.278 3.72223 13.278 3.72223L11.1714 3.73449C11.1714 3.73449 11.0154 3.71346 10.8989 3.78269C10.7858 3.85104 10.7131 4.00878 10.7131 4.00878C10.7131 4.00878 10.3792 4.89735 9.93404 5.65272C8.99552 7.24671 8.61959 7.33084 8.46624 7.23181C8.10958 7.00135 8.19897 6.30469 8.19897 5.81045C8.19897 4.26553 8.43294 3.62145 7.74241 3.45495C7.51282 3.39975 7.34457 3.36294 6.75833 3.35681C6.00646 3.34892 5.36939 3.35944 5.00923 3.53557C4.76912 3.653 4.58422 3.91501 4.69727 3.92991C4.8366 3.94831 5.15207 4.01491 5.31944 4.24275C5.53589 4.53631 5.528 5.19704 5.528 5.19704C5.528 5.19704 5.65243 7.01537 5.23794 7.24145C4.95315 7.39656 4.56319 7.08021 3.72632 5.63344C3.29781 4.89296 2.97358 4.07362 2.97358 4.07362C2.97358 4.07362 2.91136 3.92115 2.80007 3.83965C2.66512 3.74063 2.47584 3.70908 2.47584 3.70908L0.472618 3.72135C0.472618 3.72135 0.172046 3.73011 0.0616324 3.86068C-0.0365133 3.97723 0.0537457 4.21734 0.0537457 4.21734C0.0537457 4.21734 1.62233 7.88641 3.39771 9.73628C5.02676 11.4319 6.87575 11.3206 6.87575 11.3206H7.7135C7.7135 11.3206 7.96675 11.2926 8.09556 11.1533C8.21474 11.0253 8.21036 10.7852 8.21036 10.7852C8.21036 10.7852 8.19371 9.66092 8.71598 9.4953C9.23037 9.33231 9.8911 10.5819 10.5913 11.063C11.1206 11.4267 11.5228 11.3469 11.5228 11.3469L13.3954 11.3206C13.3954 11.3206 14.3751 11.2602 13.9107 10.4899Z" fill="white"/>
</g>
<defs>
<clipPath id="clip0">
<rect width="14.0198" height="14.0198" fill="white" transform="translate(0.0161133 0.346924)"/>
</clipPath>
</defs>
</svg>
