<svg width="17" height="17" viewBox="0 0 17 17" fill="none" xmlns="http://www.w3.org/2000/svg">
<g clip-path="url(#clip0)">
<path d="M15.2206 4.60565C15.0476 3.96214 14.5402 3.45486 13.8968 3.28158C12.7213 2.95996 8.01939 2.95996 8.01939 2.95996C8.01939 2.95996 3.31765 2.95996 2.1422 3.26939C1.51115 3.44248 0.991403 3.96223 0.818308 4.60565C0.508972 5.78102 0.508972 8.21857 0.508972 8.21857C0.508972 8.21857 0.508972 10.6684 0.818308 11.8315C0.991587 12.4749 1.49877 12.9822 2.14229 13.1555C3.33003 13.4772 8.01957 13.4772 8.01957 13.4772C8.01957 13.4772 12.7213 13.4772 13.8968 13.1678C14.5403 12.9946 15.0476 12.4873 15.2208 11.8439C15.5301 10.6684 15.5301 8.23095 15.5301 8.23095C15.5301 8.23095 15.5425 5.78102 15.2206 4.60565ZM6.5224 10.4705V5.96668L10.4323 8.21857L6.5224 10.4705Z" fill="white"/>
</g>
<defs>
<clipPath id="clip0">
<rect width="16.0226" height="16.0226" fill="white" transform="translate(0.0161133 0.35083)"/>
</clipPath>
</defs>
</svg>
