<svg width="139" height="16" viewBox="0 0 139 16" fill="none" xmlns="http://www.w3.org/2000/svg">
<path d="M12.3605 12.1025C12.3605 12.5634 12.302 12.9795 12.1851 13.351C12.0681 13.7155 11.9134 14.0388 11.7208 14.3208C11.5282 14.596 11.3046 14.8333 11.0501 15.0327C10.7956 15.2253 10.5274 15.3835 10.2454 15.5073C9.97024 15.6312 9.68822 15.724 9.39933 15.7859C9.11732 15.8409 8.84906 15.8685 8.59456 15.8685H3.7556C3.29475 15.8685 2.88205 15.81 2.51749 15.6931C2.15294 15.5761 1.82965 15.4214 1.54764 15.2288C1.2725 15.0293 1.0352 14.8023 0.835725 14.5478C0.64313 14.2933 0.484927 14.0285 0.361116 13.7534C0.237305 13.4713 0.144446 13.1893 0.0825408 12.9073C0.0275136 12.6184 0 12.3502 0 12.1025V8.47075C0 7.78291 0.123811 7.20168 0.371433 6.72707C0.625934 6.24558 0.938901 5.85696 1.31033 5.56118C1.68865 5.25853 2.09791 5.04186 2.53813 4.91117C2.97835 4.78049 3.38417 4.71514 3.7556 4.71514H8.59456V7.39772H3.77624C3.41856 7.39772 3.14687 7.49057 2.96115 7.67629C2.77543 7.85513 2.68257 8.11995 2.68257 8.47075V12.0819C2.68257 12.4465 2.77199 12.7216 2.95083 12.9073C3.13655 13.093 3.40481 13.1859 3.7556 13.1859H8.59456C8.95911 13.1859 9.23081 13.093 9.40965 12.9073C9.58848 12.7216 9.6779 12.4533 9.6779 12.1025V0H12.3605V12.1025Z" fill="white"/>
<path d="M33.5565 11.5144C33.5565 12.0441 33.4878 12.5221 33.3502 12.9486C33.2195 13.3682 33.0441 13.7396 32.824 14.0629C32.6039 14.3862 32.3459 14.6613 32.0502 14.8883C31.7544 15.1153 31.4483 15.301 31.1319 15.4454C30.8155 15.5899 30.4922 15.6965 30.162 15.7653C29.8388 15.8341 29.5327 15.8685 29.2438 15.8685H18.8952V13.1859H29.2438C29.7597 13.1859 30.1586 13.0346 30.4406 12.7319C30.7295 12.4293 30.874 12.0234 30.874 11.5144C30.874 11.2668 30.8361 11.0398 30.7605 10.8335C30.6848 10.6271 30.5747 10.4483 30.4303 10.297C30.2927 10.1456 30.1208 10.0287 29.9144 9.94616C29.7149 9.86362 29.4914 9.82235 29.2438 9.82235H23.0739C22.6405 9.82235 22.1728 9.74669 21.6707 9.59536C21.1685 9.43716 20.7008 9.1861 20.2675 8.84218C19.841 8.49826 19.4833 8.04772 19.1944 7.49057C18.9124 6.93342 18.7714 6.25246 18.7714 5.44769C18.7714 4.64292 18.9124 3.9654 19.1944 3.41512C19.4833 2.85797 19.841 2.40744 20.2675 2.06352C20.7008 1.71272 21.1685 1.46166 21.6707 1.31033C22.1728 1.15213 22.6405 1.07303 23.0739 1.07303H32.2049V3.7556H23.0739C22.5649 3.7556 22.1659 3.91037 21.877 4.2199C21.595 4.52942 21.454 4.93869 21.454 5.44769C21.454 5.96357 21.595 6.37283 21.877 6.67548C22.1659 6.97125 22.5649 7.11914 23.0739 7.11914H29.2438H29.2644C29.5533 7.12602 29.8594 7.16729 30.1827 7.24295C30.506 7.31174 30.8258 7.42179 31.1422 7.57311C31.4655 7.72444 31.7716 7.91703 32.0605 8.1509C32.3494 8.37789 32.6039 8.65302 32.824 8.97631C33.051 9.29959 33.2298 9.67103 33.3605 10.0906C33.4912 10.5102 33.5565 10.9848 33.5565 11.5144Z" fill="white"/>
<path d="M53.1121 3.7556H47.2001V15.8685H44.5175V3.7556H38.5952V1.07303H53.1121V3.7556Z" fill="white"/>
<path d="M73.2145 15.8685H70.5319V12.2367H61.1016V15.8685H58.419V8.47075C58.419 7.39084 58.6048 6.39691 58.9762 5.48896C59.3476 4.58101 59.8635 3.80031 60.5238 3.14687C61.1842 2.49342 61.9649 1.98442 62.8659 1.61986C63.767 1.25531 64.7506 1.07303 65.8168 1.07303H71.8629C72.0486 1.07303 72.224 1.10742 72.3891 1.17621C72.5542 1.24499 72.6986 1.34129 72.8224 1.4651C72.9462 1.58891 73.0425 1.73336 73.1113 1.89844C73.1801 2.06352 73.2145 2.23892 73.2145 2.42463V15.8685ZM61.1016 9.55409H70.5319V3.7556H65.8168C65.7342 3.7556 65.5588 3.76936 65.2906 3.79688C65.0292 3.81751 64.7231 3.87598 64.3723 3.97227C64.0284 4.06857 63.6638 4.21646 63.2786 4.41593C62.8934 4.6154 62.5392 4.89054 62.2159 5.24134C61.8926 5.59214 61.6244 6.03235 61.4111 6.56199C61.2048 7.08475 61.1016 7.721 61.1016 8.47075V9.55409Z" fill="white"/>
<path d="M95.2463 6.04611C95.2463 6.65829 95.1706 7.20512 95.0193 7.68661C94.868 8.1681 94.6616 8.59456 94.4002 8.96599C94.1457 9.33055 93.8499 9.64351 93.5129 9.90489C93.1759 10.1663 92.8216 10.3829 92.4502 10.5549C92.0856 10.72 91.7142 10.8404 91.3359 10.916C90.9645 10.9917 90.6137 11.0295 90.2835 11.0295L95.8859 15.8685H91.7383L86.1461 11.0295H84.2168V8.34693H90.2835C90.6205 8.31942 90.9266 8.25064 91.2018 8.14058C91.4838 8.02365 91.7245 7.86889 91.924 7.67629C92.1303 7.4837 92.2886 7.25327 92.3986 6.98501C92.5087 6.70988 92.5637 6.39691 92.5637 6.04611V4.35402C92.5637 4.2027 92.543 4.08921 92.5018 4.01354C92.4674 3.931 92.4192 3.87254 92.3573 3.83815C92.3023 3.79687 92.2404 3.7728 92.1716 3.76592C92.1097 3.75904 92.0512 3.7556 91.9962 3.7556H83.1437V15.8685H80.4612V2.42463C80.4612 2.23892 80.4955 2.06352 80.5643 1.89844C80.6331 1.73336 80.726 1.58891 80.8429 1.4651C80.9667 1.34129 81.1112 1.24499 81.2762 1.17621C81.4413 1.10742 81.6202 1.07303 81.8128 1.07303H91.9962C92.5946 1.07303 93.1002 1.18308 93.5129 1.40319C93.9256 1.61642 94.2592 1.88812 94.5137 2.21828C94.7751 2.54157 94.9608 2.89237 95.0709 3.27068C95.1878 3.64899 95.2463 4.00323 95.2463 4.33339V6.04611Z" fill="white"/>
<path d="M106.155 15.8685H112.494V14.7274H107.423V1.07716H106.155V15.8685Z" fill="white"/>
<path d="M115.451 15.8685H116.697L117.5 12.9102H123.417L124.22 15.8685H125.466L121.24 1.07716H119.677L115.451 15.8685ZM120.458 2.4929L123.142 11.8537H117.754L120.458 2.4929Z" fill="white"/>
<path d="M129.491 15.8685H133.421C137.52 15.8685 138.133 13.6709 138.133 11.8537C138.133 10.5013 137.563 8.93768 135.661 8.24037C136.781 7.47968 137.288 6.21185 137.288 5.04968C137.288 3.25359 136.548 1.07716 133.421 1.07716H129.491V15.8685ZM130.759 8.89542H133.21C136.231 8.89542 136.865 10.2689 136.865 11.8537C136.865 13.4385 136.443 14.7274 133.421 14.8119H130.759V8.89542ZM130.759 2.13368H133.421C135.809 2.13368 136.02 3.8875 136.02 5.04968C136.02 6.21185 135.597 7.83889 133.21 7.83889H130.759V2.13368Z" fill="white"/>
</svg>
