<svg width="8" height="15" viewBox="0 0 8 15" fill="none" xmlns="http://www.w3.org/2000/svg">
<path d="M7.53307 0.275622L5.71504 0.272705C3.67254 0.272705 2.35259 1.62695 2.35259 3.72299V5.31381H0.524638C0.366681 5.31381 0.23877 5.44186 0.23877 5.59982V7.90473C0.23877 8.06269 0.366827 8.1906 0.524638 8.1906H2.35259V14.0066C2.35259 14.1646 2.4805 14.2925 2.63846 14.2925H5.02341C5.18137 14.2925 5.30928 14.1644 5.30928 14.0066V8.1906H7.44659C7.60454 8.1906 7.73245 8.06269 7.73245 7.90473L7.73333 5.59982C7.73333 5.52398 7.70314 5.45135 7.64961 5.39767C7.59608 5.344 7.52316 5.31381 7.44731 5.31381H5.30928V3.96525C5.30928 3.31709 5.46374 2.98804 6.30807 2.98804L7.53278 2.9876C7.69059 2.9876 7.8185 2.85955 7.8185 2.70173V0.561493C7.8185 0.403827 7.69074 0.275914 7.53307 0.275622Z" fill="#00ABCA"/>
</svg>
