<svg width="15" height="15" viewBox="0 0 15 15" fill="none" xmlns="http://www.w3.org/2000/svg">
<g clip-path="url(#clip0)">
<path d="M13.9893 4.39456C13.9565 3.64963 13.8362 3.13751 13.6639 2.69374C13.4861 2.22269 13.2126 1.80096 12.8543 1.45038C12.5042 1.09434 12.0803 0.817678 11.6154 0.64244C11.1697 0.469875 10.6609 0.349412 9.91705 0.316568C9.16762 0.280943 8.92971 0.272705 7.02895 0.272705C5.12819 0.272705 4.89027 0.280943 4.14362 0.313787C3.39975 0.346631 2.88834 0.467201 2.44531 0.639658C1.97482 0.817678 1.55369 1.09156 1.2036 1.45038C0.84806 1.80096 0.571898 2.22547 0.3968 2.69106C0.22448 3.13751 0.104187 3.64685 0.0713891 4.39178C0.035814 5.14227 0.0275879 5.38052 0.0275879 7.28397C0.0275879 9.18741 0.035814 9.42567 0.0686115 10.1734C0.101409 10.9183 0.221809 11.4304 0.394129 11.8742C0.571898 12.3452 0.84806 12.767 1.2036 13.1176C1.55369 13.4736 1.9776 13.7503 2.44253 13.9255C2.88834 14.0981 3.39697 14.2185 4.14095 14.2514C4.88749 14.2843 5.12552 14.2924 7.02628 14.2924C8.92703 14.2924 9.16495 14.2843 9.9116 14.2514C10.6555 14.2185 11.1669 14.0981 11.6099 13.9255C12.5508 13.5612 13.2947 12.8163 13.6584 11.8742C13.8306 11.4278 13.951 10.9183 13.9838 10.1734C14.0166 9.42567 14.0249 9.18741 14.0249 7.28397C14.0249 5.38052 14.0221 5.14227 13.9893 4.39456ZM12.7286 10.1186C12.6984 10.8033 12.5836 11.173 12.4879 11.4195C12.2526 12.0303 11.7686 12.515 11.1587 12.7506C10.9125 12.8465 10.5406 12.9615 9.85957 12.9915C9.12115 13.0245 8.89968 13.0326 7.03172 13.0326C5.16376 13.0326 4.93952 13.0245 4.20377 12.9915C3.52004 12.9615 3.15083 12.8465 2.90469 12.7506C2.60118 12.6383 2.32491 12.4602 2.10067 12.2275C1.8682 12.0001 1.69043 11.7262 1.57826 11.4223C1.48254 11.1758 1.36769 10.8033 1.33767 10.1214C1.30477 9.38191 1.29665 9.16003 1.29665 7.28942C1.29665 5.41882 1.30477 5.19426 1.33767 4.45757C1.36769 3.77288 1.48254 3.40314 1.57826 3.15666C1.69043 2.85261 1.8682 2.57606 2.10345 2.35139C2.33036 2.1186 2.60385 1.94058 2.90746 1.82835C3.15361 1.73249 3.5256 1.61749 4.20654 1.58732C4.94497 1.55447 5.16654 1.54623 7.03439 1.54623C8.90513 1.54623 9.1266 1.55447 9.86235 1.58732C10.5461 1.61749 10.9153 1.73249 11.1614 1.82835C11.4649 1.94058 11.7412 2.1186 11.9655 2.35139C12.1979 2.57873 12.3757 2.85261 12.4879 3.15666C12.5836 3.40314 12.6984 3.77555 12.7286 4.45757C12.7614 5.19704 12.7696 5.41882 12.7696 7.28942C12.7696 9.16003 12.7614 9.37913 12.7286 10.1186Z" fill="#00ABCA"/>
<path d="M7.02994 3.68384C5.04446 3.68384 3.43353 5.29693 3.43353 7.28533C3.43353 9.27372 5.04446 10.8868 7.02994 10.8868C9.01553 10.8868 10.6263 9.27372 10.6263 7.28533C10.6263 5.29693 9.01553 3.68384 7.02994 3.68384ZM7.02994 9.62152C5.74186 9.62152 4.69704 8.57533 4.69704 7.28533C4.69704 5.99532 5.74186 4.94913 7.02994 4.94913C8.31812 4.94913 9.36284 5.99532 9.36284 7.28533C9.36284 8.57533 8.31812 9.62152 7.02994 9.62152Z" fill="#00ABCA"/>
<path d="M11.6092 3.53927C11.6092 4.00358 11.2333 4.38005 10.7695 4.38005C10.3059 4.38005 9.92993 4.00358 9.92993 3.53927C9.92993 3.07485 10.3059 2.69849 10.7695 2.69849C11.2333 2.69849 11.6092 3.07485 11.6092 3.53927Z" fill="#00ABCA"/>
</g>
<defs>
<clipPath id="clip0">
<rect width="14" height="14.0198" fill="white" transform="translate(0.00415039 0.272705)"/>
</clipPath>
</defs>
</svg>
