<svg width="15" height="15" viewBox="0 0 15 15" fill="none" xmlns="http://www.w3.org/2000/svg">
<g clip-path="url(#clip0)">
<path d="M2.04742 0.983643C1.08363 0.983643 0.453491 1.61651 0.453491 2.44833C0.453491 3.26178 1.06486 3.9127 2.01044 3.9127H2.02873C3.01136 3.9127 3.6229 3.26178 3.6229 2.44833C3.60452 1.61651 3.01136 0.983643 2.04742 0.983643Z" fill="#00ABCA"/>
<path d="M0.617554 5.07349H3.4351V13.5502H0.617554V5.07349Z" fill="#00ABCA"/>
<path d="M10.3494 4.87036C8.8294 4.87036 7.81019 6.29863 7.81019 6.29863V5.06931H4.99255V13.546H7.81002V8.8123C7.81002 8.55888 7.8284 8.30586 7.90284 8.12464C8.10652 7.6186 8.57005 7.09435 9.34844 7.09435C10.368 7.09435 10.7757 7.8717 10.7757 9.01125V13.546H13.5931V8.68563C13.5931 6.08195 12.203 4.87036 10.3494 4.87036Z" fill="#00ABCA"/>
</g>
<defs>
<clipPath id="clip0">
<rect width="14.0198" height="14.0198" fill="white" transform="translate(0.0198975 0.272705)"/>
</clipPath>
</defs>
</svg>
