<svg width="15" height="15" viewBox="0 0 15 15" fill="none" xmlns="http://www.w3.org/2000/svg">
<g clip-path="url(#clip0)">
<path d="M12.918 3.04197L14.0367 1.9718V1.73755H10.1614L7.39949 8.61192L4.25731 1.73755H0.193907V1.9718L1.50067 3.54493C1.62801 3.66118 1.69461 3.83117 1.67767 4.00233V10.1845C1.71797 10.407 1.64554 10.636 1.48898 10.7978L0.0169067 12.5819V12.8132H4.19071V12.5789L2.71864 10.7978C2.55916 10.6354 2.4838 10.4105 2.51593 10.1845V4.83709L6.17977 12.8161H6.60562L9.75598 4.83709V11.1933C9.75598 11.361 9.75598 11.3954 9.64616 11.5052L8.5129 12.6017V12.8365H14.011V12.6023L12.9186 11.5327C12.8228 11.4603 12.7732 11.3388 12.7936 11.2208V3.35391C12.7732 3.23533 12.8222 3.11382 12.918 3.04197Z" fill="#00ABCA"/>
</g>
<defs>
<clipPath id="clip0">
<rect width="14.0198" height="14.0198" fill="white" transform="translate(0.0169067 0.276611)"/>
</clipPath>
</defs>
</svg>
