<svg width="15" height="15" viewBox="0 0 15 15" fill="none" xmlns="http://www.w3.org/2000/svg">
<path d="M9.43753 9.93866C8.83366 9.93866 8.3413 9.38627 8.3413 8.70858C8.3413 8.03098 8.83366 7.4785 9.43753 7.4785C10.0415 7.4785 10.5339 8.03098 10.5339 8.70858C10.5339 9.38627 10.0415 9.93866 9.43753 9.93866ZM9.63118 11.9574C8.8821 12.7956 7.44914 12.8617 7.0284 12.8617C6.60756 12.8617 5.17255 12.7956 4.42553 11.9574C4.31412 11.8323 4.31412 11.6316 4.42553 11.5064C4.53711 11.3813 4.71595 11.3813 4.82754 11.5064C5.29877 12.0354 6.3067 12.2243 7.0284 12.2243C7.74804 12.2243 8.75794 12.0354 9.22934 11.5064C9.34075 11.3813 9.51959 11.3813 9.63118 11.5064C9.74062 11.6316 9.74062 11.8323 9.63118 11.9574ZM3.51866 8.70868C3.51866 8.03108 4.01103 7.4786 4.61498 7.4786C5.21885 7.4786 5.71122 8.03108 5.71122 8.70868C5.71122 9.38627 5.21885 9.93885 4.61498 9.93885C4.01103 9.93866 3.51866 9.38627 3.51866 8.70868ZM14.0393 7.4786C14.0393 6.52707 13.3534 5.75739 12.5054 5.75739C12.0909 5.75739 11.7163 5.94146 11.4407 6.24141C10.3928 5.39147 8.94739 4.84369 7.33765 4.77993L8.03624 1.0896L10.3192 1.63508C10.3466 2.28675 10.8221 2.8062 11.4092 2.8062C12.0152 2.8062 12.5055 2.25602 12.5055 1.57603C12.5055 0.896127 12.0152 0.345947 11.4092 0.345947C10.9778 0.345947 10.6096 0.626894 10.4307 1.03295L7.8805 0.423817C7.80896 0.407302 7.73537 0.421609 7.67428 0.466353C7.61335 0.511193 7.57117 0.579654 7.55653 0.659924C7.55653 0.659924 6.7906 4.75401 6.7906 4.77763C5.1515 4.82477 3.67859 5.37495 2.61393 6.23671C2.33831 5.93925 1.96582 5.75739 1.55346 5.75739C0.70546 5.75739 0.0195312 6.52937 0.0195312 7.4786C0.0195312 8.17741 0.391932 8.77954 0.926402 9.04858C0.903298 9.21872 0.890633 9.39328 0.890633 9.57043C0.890633 12.2195 3.63863 14.3657 7.0284 14.3657C10.4181 14.3657 13.1661 12.2195 13.1661 9.57043C13.1661 9.39568 13.1535 9.22333 13.1304 9.05338C13.6627 8.78424 14.0393 8.18221 14.0393 7.4786Z" fill="#00ABCA"/>
</svg>
