<svg width="16" height="14" viewBox="0 0 16 14" fill="none" xmlns="http://www.w3.org/2000/svg">
<path d="M6.06908 13.723C5.40095 13.723 4.71327 13.6679 4.02145 13.5575C2.80297 13.3628 1.56951 12.7138 1.22048 12.5195L0.305054 12.0099L1.29616 11.678C2.37955 11.3153 3.0386 11.0903 3.85442 10.7379C3.03754 10.3351 2.40796 9.61054 2.1049 8.67389L1.87434 7.96121L2.06341 7.99061C1.88412 7.80662 1.74255 7.61986 1.63281 7.45003C1.24252 6.84644 1.03589 6.10891 1.07985 5.47688L1.12323 4.8548L1.489 4.99907C1.3347 4.70238 1.22319 4.38552 1.15765 4.05342C0.997929 3.24351 1.1316 2.38308 1.53415 1.63066L1.85277 1.03511L2.27889 1.55625C3.62657 3.20462 5.33353 4.18244 7.35947 4.46869C7.27672 3.88791 7.33872 3.32741 7.54394 2.825C7.78288 2.24001 8.20794 1.74396 8.7728 1.39038C9.40014 0.997786 10.1609 0.807551 10.915 0.85472C11.715 0.904769 12.4413 1.20998 13.0182 1.73796C13.2999 1.66343 13.5075 1.58385 13.7881 1.47631C13.9569 1.41162 14.1483 1.33817 14.3878 1.25415L15.2705 0.944496L14.6949 2.61832C14.7329 2.61508 14.772 2.61232 14.8129 2.61052L15.7554 2.56707L15.1983 3.34229C15.1664 3.3867 15.1583 3.3993 15.1469 3.4167C15.102 3.4856 15.0462 3.57129 14.2815 4.61092C14.0901 4.87125 13.9945 5.21031 14.0123 5.56581C14.0801 6.91678 13.9173 8.13908 13.5282 9.19863C13.1601 10.2011 12.5899 11.0611 11.8333 11.755C10.8972 12.6134 9.70343 13.2011 8.28515 13.5016C7.58944 13.649 6.84234 13.723 6.06908 13.723Z" fill="#00ABCA"/>
</svg>
